<?xml version="1.0" encoding="utf-8"?>
<!-- Generator: Adobe Illustrator 19.2.1, SVG Export Plug-In . SVG Version: 6.00 Build 0)  -->
<svg version="1.1" id="Layer_1" xmlns="http://www.w3.org/2000/svg" xmlns:xlink="http://www.w3.org/1999/xlink" x="0px" y="0px"
	 viewBox="0 0 105.7 105.1" style="enable-background:new 0 0 105.7 105.1;" xml:space="preserve">
<style type="text/css">
	.st0{fill:none;stroke:#333333;stroke-width:10;stroke-linecap:round;stroke-linejoin:round;}
	.st1{fill:none;stroke:#333333;stroke-width:10;stroke-linecap:square;stroke-linejoin:round;}
	.st2{fill:none;}
</style>
<title>h-logo</title>
<path class="st0" d="M37.3,5.5"/>
<path class="st1" d="M10,55.3v-8.4"/>
<path class="st1" d="M37.8,81.6v18.7c-6.5,0-27.7-6.4-27.8-14.1V60.3"/>
<path class="st1" d="M37.8,44.3"/>
<line class="st1" x1="37.8" y1="40.3" x2="67.7" y2="40.3"/>
<path class="st1" d="M67.7,86.1V64"/>
<line class="st2" x1="95.4" y1="60.9" x2="95.2" y2="99.7"/>
<path class="st1" d="M67.7,60.9"/>
<line class="st1" x1="67.7" y1="63.6" x2="37.8" y2="63.6"/>
<line class="st1" x1="37.8" y1="77.2" x2="37.8" y2="63.6"/>
<path class="st1" d="M95.4,60.1V86c-0.1,7.7-21.3,14.1-27.8,14.1V81.4"/>
<path class="st1" d="M10,56.1V19.7c0-7.6,21.1-14.4,27.5-14.4l0.3,35"/>
<path class="st0" d="M68.1,4.7"/>
<path class="st1" d="M67.6,39.8l0.3-34.6c6.4,0,27.5,6.7,27.5,14.2v36"/>
</svg>
